# xmcd CD database file
#
# Track frame offsets:
#	150
#	24216
#	46361
#	70422
#	96744
#	117295
#	133312
#	155220
#	173421
#	197531
#	220889
#	244577
#	266555
#
# Disc length: 3824 seconds
#
# Revision: 0
# Processed by: cddbd v1.5.2PL0 Copyright (c) Steve Scherf et al.
# Submitted via: CDex 1.70beta2
#
DISCID=bd0eee0d
DTITLE=Janosh - The Acturians - Arcturian Frequencies
DYEAR=2007
DGENRE=New Age
TTITLE0=01 - Rebirth
TTITLE1=02 - Forgiveness
TTITLE2=03 - Empowerment
TTITLE3=04 - Integration
TTITLE4=05 - Balance
TTITLE5=06 - Confidence
TTITLE6=07 - Trust
TTITLE7=08 - Emergence
TTITLE8=09 - Passion
TTITLE9=10 - Blueprint
TTITLE10=11 - Third Wave
TTITLE11=12 - Frequency
TTITLE12=13 - Transition/Timeshift
EXTD=YEAR: 2007
EXTT0=
EXTT1=
EXTT2=
EXTT3=
EXTT4=
EXTT5=
EXTT6=
EXTT7=
EXTT8=
EXTT9=
EXTT10=
EXTT11=
EXTT12=
PLAYORDER=
